{"asset":{"version":"2.0","generator":"babylon.js glTF exporter for 3dsmax 2021 v20210212.2"},"scene":0,"scenes":[{"nodes":[0,1]}],"nodes":[{"mesh":0,"name":"AphroditeBust_marble"},{"mesh":1,"name":"AphroditeBust_bronze"}],"meshes":[{"primitives":[{"attributes":{"POSITION":1,"NORMAL":2,"TEXCOORD_0":3},"indices":0,"material":0}],"name":"AphroditeBust_marble"},{"primitives":[{"attributes":{"POSITION":5,"NORMAL":6,"TEXCOORD_0":7},"indices":4,"material":1}],"name":"AphroditeBust_bronze"}],"accessors":[{"bufferView":0,"componentType":5125,"count":233040,"type":"SCALAR","name":"accessorIndices"},{"bufferView":1,"componentType":5126,"count":233040,"max":[-4.007,49.7812,17.034399],"min":[-28.5438976,0.0856,-11.0906992],"type":"VEC3","name":"accessorPositions"},{"bufferView":1,"byteOffset":2796480,"componentType":5126,"count":233040,"type":"VEC3","name":"accessorNormals"},{"bufferView":2,"componentType":5126,"count":233040,"type":"VEC2","name":"accessorUVs"},{"bufferView":0,"byteOffset":932160,"componentType":5125,"count":233040,"type":"SCALAR","name":"accessorIndices"},{"bufferView":1,"byteOffset":5592960,"componentType":5126,"count":233040,"max":[23.602499,49.7812,16.5202],"min":[-4.4737,0.0856,-8.3813],"type":"VEC3","name":"accessorPositions"},{"bufferView":1,"byteOffset":8389440,"componentType":5126,"count":233040,"type":"VEC3","name":"accessorNormals"},{"bufferView":2,"byteOffset":1864320,"componentType":5126,"count":233040,"type":"VEC2","name":"accessorUVs"}],"bufferViews":[{"buffer":0,"byteLength":1864320,"name":"bufferViewScalar"},{"buffer":0,"byteOffset":1864320,"byteLength":11185920,"byteStride":12,"name":"bufferViewFloatVec3"},{"buffer":0,"byteOffset":13050240,"byteLength":3728640,"byteStride":8,"name":"bufferViewFloatVec2"}],"buffers":[{"uri":"AphroditeBust.bin","byteLength":16778880}],"materials":[{"pbrMetallicRoughness":{"baseColorTexture":{"index":0},"metallicFactor":0.0,"roughnessFactor":0.450053632},"occlusionTexture":{"index":0},"name":"AphroditeBust_DavidMarble_mtl"},{"pbrMetallicRoughness":{"baseColorTexture":{"index":1},"metallicFactor":0.0,"roughnessFactor":0.450053632},"occlusionTexture":{"index":1},"name":"AphroditeBust_DavidBronze_mtl"}],"textures":[{"sampler":0,"source":0,"name":"marble_diff.png"},{"sampler":0,"source":1,"name":"bronze_diff.png"}],"images":[{"uri":"./marble_diff.png"},{"uri":"./bronze_diff.png"}],"samplers":[{"magFilter":9729,"minFilter":9987}]}