{"asset":{"version":"2.0","generator":"babylon.js glTF exporter for 3dsmax 2021 v20210212.2"},"scene":0,"scenes":[{"nodes":[0,1]}],"nodes":[{"mesh":0,"name":"srt10"},{"mesh":1,"name":"Headlight_glass"}],"meshes":[{"primitives":[{"attributes":{"POSITION":1,"NORMAL":2,"TEXCOORD_0":3},"indices":0,"material":0},{"attributes":{"POSITION":5,"NORMAL":6,"TEXCOORD_0":7},"indices":4,"material":1},{"attributes":{"POSITION":9,"NORMAL":10,"TEXCOORD_0":11},"indices":8,"material":2},{"attributes":{"POSITION":13,"NORMAL":14,"TEXCOORD_0":15},"indices":12,"material":3},{"attributes":{"POSITION":17,"NORMAL":18,"TEXCOORD_0":19},"indices":16,"material":4},{"attributes":{"POSITION":21,"NORMAL":22,"TEXCOORD_0":23},"indices":20,"material":5},{"attributes":{"POSITION":25,"NORMAL":26,"TEXCOORD_0":27},"indices":24,"material":6},{"attributes":{"POSITION":29,"NORMAL":30,"TEXCOORD_0":31},"indices":28,"material":7},{"attributes":{"POSITION":33,"NORMAL":34,"TEXCOORD_0":35},"indices":32,"material":8},{"attributes":{"POSITION":37,"NORMAL":38,"TEXCOORD_0":39},"indices":36,"material":9},{"attributes":{"POSITION":41,"NORMAL":42,"TEXCOORD_0":43},"indices":40,"material":10},{"attributes":{"POSITION":45,"NORMAL":46,"TEXCOORD_0":47},"indices":44,"material":11},{"attributes":{"POSITION":49,"NORMAL":50,"TEXCOORD_0":51},"indices":48,"material":12},{"attributes":{"POSITION":53,"NORMAL":54,"TEXCOORD_0":55},"indices":52,"material":13},{"attributes":{"POSITION":57,"NORMAL":58,"TEXCOORD_0":59},"indices":56,"material":14},{"attributes":{"POSITION":61,"NORMAL":62,"TEXCOORD_0":63},"indices":60,"material":15}],"name":"srt10"},{"primitives":[{"attributes":{"POSITION":65,"NORMAL":66,"TEXCOORD_0":67},"indices":64,"material":16}],"name":"Headlight_glass"}],"accessors":[{"bufferView":0,"componentType":5125,"count":276354,"type":"SCALAR","name":"accessorIndices"},{"bufferView":1,"componentType":5126,"count":276354,"max":[53.8540039,28.7939014,101.0984],"min":[-36.9336967,-22.7368,-101.0984],"type":"VEC3","name":"accessorPositions"},{"bufferView":1,"byteOffset":3316248,"componentType":5126,"count":276354,"type":"VEC3","name":"accessorNormals"},{"bufferView":2,"componentType":5126,"count":276354,"type":"VEC2","name":"accessorUVs"},{"bufferView":0,"byteOffset":1105416,"componentType":5125,"count":113364,"type":"SCALAR","name":"accessorIndices"},{"bufferView":1,"byteOffset":6632496,"componentType":5126,"count":113364,"max":[49.4543,8.4939,98.6201],"min":[-32.314,-20.1471,-53.6474953],"type":"VEC3","name":"accessorPositions"},{"bufferView":1,"byteOffset":7992864,"componentType":5126,"count":113364,"type":"VEC3","name":"accessorNormals"},{"bufferView":2,"byteOffset":2210832,"componentType":5126,"count":113364,"type":"VEC2","name":"accessorUVs"},{"bufferView":0,"byteOffset":1558872,"componentType":5125,"count":29640,"type":"SCALAR","name":"accessorIndices"},{"bufferView":1,"byteOffset":9353232,"componentType":5126,"count":29640,"max":[46.7201,25.212801,93.9507],"min":[-29.8012,-13.8963995,-85.2703],"type":"VEC3","name":"accessorPositions"},{"bufferView":1,"byteOffset":9708912,"componentType":5126,"count":29640,"type":"VEC3","name":"accessorNormals"},{"bufferView":2,"byteOffset":3117744,"componentType":5126,"count":29640,"type":"VEC2","name":"accessorUVs"},{"bufferView":0,"byteOffset":1677432,"componentType":5125,"count":14136,"type":"SCALAR","name":"accessorIndices"},{"bufferView":1,"byteOffset":10064592,"componentType":5126,"count":14136,"max":[37.828,-8.7187,99.6338],"min":[-20.9077988,-18.3405,87.8268],"type":"VEC3","name":"accessorPositions"},{"bufferView":1,"byteOffset":10234224,"componentType":5126,"count":14136,"type":"VEC3","name":"accessorNormals"},{"bufferView":2,"byteOffset":3354864,"componentType":5126,"count":14136,"type":"VEC2","name":"accessorUVs"},{"bufferView":0,"byteOffset":1733976,"componentType":5125,"count":294108,"type":"SCALAR","name":"accessorIndices"},{"bufferView":1,"byteOffset":10403856,"componentType":5126,"count":294108,"max":[53.0302,12.9873,93.6319],"min":[-36.1099,-22.7481,-85.0603],"type":"VEC3","name":"accessorPositions"},{"bufferView":1,"byteOffset":13933152,"componentType":5126,"count":294108,"type":"VEC3","name":"accessorNormals"},{"bufferView":2,"byteOffset":3467952,"componentType":5126,"count":294108,"type":"VEC2","name":"accessorUVs"},{"bufferView":0,"byteOffset":2910408,"componentType":5125,"count":7752,"type":"SCALAR","name":"accessorIndices"},{"bufferView":1,"byteOffset":17462448,"componentType":5126,"count":7752,"max":[50.5877,8.9033,93.8342],"min":[-33.6675,-8.434,77.3831],"type":"VEC3","name":"accessorPositions"},{"bufferView":1,"byteOffset":17555472,"componentType":5126,"count":7752,"type":"VEC3","name":"accessorNormals"},{"bufferView":2,"byteOffset":5820816,"componentType":5126,"count":7752,"type":"VEC2","name":"accessorUVs"},{"bufferView":0,"byteOffset":2941416,"componentType":5125,"count":42156,"type":"SCALAR","name":"accessorIndices"},{"bufferView":1,"byteOffset":17648496,"componentType":5126,"count":42156,"max":[47.8333,8.6959,93.5496],"min":[-30.916,-13.9313,-88.2124],"type":"VEC3","name":"accessorPositions"},{"bufferView":1,"byteOffset":18154368,"componentType":5126,"count":42156,"type":"VEC3","name":"accessorNormals"},{"bufferView":2,"byteOffset":5882832,"componentType":5126,"count":42156,"type":"VEC2","name":"accessorUVs"},{"bufferView":0,"byteOffset":3110040,"componentType":5125,"count":36366,"type":"SCALAR","name":"accessorIndices"},{"bufferView":1,"byteOffset":18660240,"componentType":5126,"count":36366,"max":[48.3332,4.9683,-71.5328],"min":[-31.4159985,-19.6050987,-93.733],"type":"VEC3","name":"accessorPositions"},{"bufferView":1,"byteOffset":19096632,"componentType":5126,"count":36366,"type":"VEC3","name":"accessorNormals"},{"bufferView":2,"byteOffset":6220080,"componentType":5126,"count":36366,"type":"VEC2","name":"accessorUVs"},{"bufferView":0,"byteOffset":3255504,"componentType":5125,"count":334452,"type":"SCALAR","name":"accessorIndices"},{"bufferView":1,"byteOffset":19533024,"componentType":5126,"count":334452,"max":[52.5968,11.5377,75.925],"min":[-35.4565964,-25.094799,-69.7830048],"type":"VEC3","name":"accessorPositions"},{"bufferView":1,"byteOffset":23546448,"componentType":5126,"count":334452,"type":"VEC3","name":"accessorNormals"},{"bufferView":2,"byteOffset":6511008,"componentType":5126,"count":334452,"type":"VEC2","name":"accessorUVs"},{"bufferView":0,"byteOffset":4593312,"componentType":5125,"count":55788,"type":"SCALAR","name":"accessorIndices"},{"bufferView":1,"byteOffset":27559872,"componentType":5126,"count":55788,"max":[48.2635,-5.1437,64.4619],"min":[-31.1232014,-21.765,-66.439],"type":"VEC3","name":"accessorPositions"},{"bufferView":1,"byteOffset":28229328,"componentType":5126,"count":55788,"type":"VEC3","name":"accessorNormals"},{"bufferView":2,"byteOffset":9186624,"componentType":5126,"count":55788,"type":"VEC2","name":"accessorUVs"},{"bufferView":0,"byteOffset":4816464,"componentType":5125,"count":3552,"type":"SCALAR","name":"accessorIndices"},{"bufferView":1,"byteOffset":28898784,"componentType":5126,"count":3552,"max":[48.1632,3.25339985,-77.9005],"min":[-31.246,-2.3705,-83.746],"type":"VEC3","name":"accessorPositions"},{"bufferView":1,"byteOffset":28941408,"componentType":5126,"count":3552,"type":"VEC3","name":"accessorNormals"},{"bufferView":2,"byteOffset":9632928,"componentType":5126,"count":3552,"type":"VEC2","name":"accessorUVs"},{"bufferView":0,"byteOffset":4830672,"componentType":5125,"count":4266,"type":"SCALAR","name":"accessorIndices"},{"bufferView":1,"byteOffset":28984032,"componentType":5126,"count":4266,"max":[45.3957,-6.61430025,82.4104],"min":[-33.4398,-22.6384,-95.6899948],"type":"VEC3","name":"accessorPositions"},{"bufferView":1,"byteOffset":29035224,"componentType":5126,"count":4266,"type":"VEC3","name":"accessorNormals"},{"bufferView":2,"byteOffset":9661344,"componentType":5126,"count":4266,"type":"VEC2","name":"accessorUVs"},{"bufferView":0,"byteOffset":4847736,"componentType":5125,"count":10128,"type":"SCALAR","name":"accessorIndices"},{"bufferView":1,"byteOffset":29086416,"componentType":5126,"count":10128,"max":[52.2611,6.4376,94.3273],"min":[-35.3408,-22.4968,-94.4378],"type":"VEC3","name":"accessorPositions"},{"bufferView":1,"byteOffset":29207952,"componentType":5126,"count":10128,"type":"VEC3","name":"accessorNormals"},{"bufferView":2,"byteOffset":9695472,"componentType":5126,"count":10128,"type":"VEC2","name":"accessorUVs"},{"bufferView":0,"byteOffset":4888248,"componentType":5125,"count":7680,"type":"SCALAR","name":"accessorIndices"},{"bufferView":1,"byteOffset":29329488,"componentType":5126,"count":7680,"max":[10.596,14.2081995,98.1238],"min":[6.3243,-2.3424,-97.1487],"type":"VEC3","name":"accessorPositions"},{"bufferView":1,"byteOffset":29421648,"componentType":5126,"count":7680,"type":"VEC3","name":"accessorNormals"},{"bufferView":2,"byteOffset":9776496,"componentType":5126,"count":7680,"type":"VEC2","name":"accessorUVs"},{"bufferView":0,"byteOffset":4918968,"componentType":5125,"count":768,"type":"SCALAR","name":"accessorIndices"},{"bufferView":1,"byteOffset":29513808,"componentType":5126,"count":768,"max":[52.7742958,16.3286,8.7203],"min":[-35.854,11.5605993,3.8848],"type":"VEC3","name":"accessorPositions"},{"bufferView":1,"byteOffset":29523024,"componentType":5126,"count":768,"type":"VEC3","name":"accessorNormals"},{"bufferView":2,"byteOffset":9837936,"componentType":5126,"count":768,"type":"VEC2","name":"accessorUVs"},{"bufferView":0,"byteOffset":4922040,"componentType":5125,"count":88320,"type":"SCALAR","name":"accessorIndices"},{"bufferView":1,"byteOffset":29532240,"componentType":5126,"count":88320,"max":[52.0574,1.8852,71.5068],"min":[-34.9171,-28.7939014,-73.4839],"type":"VEC3","name":"accessorPositions"},{"bufferView":1,"byteOffset":30592080,"componentType":5126,"count":88320,"type":"VEC3","name":"accessorNormals"},{"bufferView":2,"byteOffset":9844080,"componentType":5126,"count":88320,"type":"VEC2","name":"accessorUVs"},{"bufferView":0,"byteOffset":5275320,"componentType":5123,"count":11040,"type":"SCALAR","name":"accessorIndices"},{"bufferView":1,"byteOffset":31651920,"componentType":5126,"count":11040,"max":[48.2932,4.5021,-77.8253],"min":[-31.3758984,-3.0256,-93.8814],"type":"VEC3","name":"accessorPositions"},{"bufferView":1,"byteOffset":31784400,"componentType":5126,"count":11040,"type":"VEC3","name":"accessorNormals"},{"bufferView":2,"byteOffset":10550640,"componentType":5126,"count":11040,"type":"VEC2","name":"accessorUVs"}],"bufferViews":[{"buffer":0,"byteLength":5297400,"name":"bufferViewScalar"},{"buffer":0,"byteOffset":5297400,"byteLength":31916880,"byteStride":12,"name":"bufferViewFloatVec3"},{"buffer":0,"byteOffset":37214280,"byteLength":10638960,"byteStride":8,"name":"bufferViewFloatVec2"}],"buffers":[{"uri":"srt10.bin","byteLength":47853240}],"materials":[{"pbrMetallicRoughness":{"baseColorTexture":{"index":0},"metallicFactor":0.0,"roughnessFactor":0.2701191},"name":"srt10_Material__33"},{"pbrMetallicRoughness":{"baseColorFactor":[0.4588,0.0,0.0,1.0],"metallicFactor":0.0,"roughnessFactor":0.2701191},"name":"srt10_Material__32"},{"pbrMetallicRoughness":{"baseColorFactor":[0.07058824,0.07058824,0.07058824,1.0],"metallicFactor":0.0,"roughnessFactor":0.309252828},"name":"srt10_glass"},{"pbrMetallicRoughness":{"baseColorFactor":[0.0314,0.0314,0.0314,1.0],"metallicFactor":0.0,"roughnessFactor":0.240331292},"name":"srt10_23___Default"},{"pbrMetallicRoughness":{"baseColorFactor":[0.051,0.051,0.051,1.0],"metallicFactor":0.0,"roughnessFactor":0.19949317},"name":"srt10_balck_gloss"},{"pbrMetallicRoughness":{"baseColorFactor":[0.4588,0.0,0.0,1.0],"metallicFactor":0.0,"roughnessFactor":0.235631764},"name":"srt10_back_red_glass"},{"pbrMetallicRoughness":{"baseColorFactor":[0.5,0.5,0.5,1.0],"metallicFactor":0.0,"roughnessFactor":0.214248464},"name":"srt10_light_chrome"},{"pbrMetallicRoughness":{"baseColorFactor":[0.0,0.0,0.0,1.0],"metallicFactor":0.0,"roughnessFactor":0.2245252},"name":"srt10_black_light_colour"},{"pbrMetallicRoughness":{"baseColorFactor":[0.498,0.498,0.498,1.0],"metallicFactor":0.0,"roughnessFactor":0.216540411},"name":"srt10_rim_chrome"},{"pbrMetallicRoughness":{"baseColorFactor":[0.4667,0.4667,0.4667,1.0],"metallicFactor":0.0,"roughnessFactor":0.240331292},"name":"srt10_brake_disk"},{"pbrMetallicRoughness":{"baseColorFactor":[0.749,0.4588,0.0,1.0],"metallicFactor":0.0,"roughnessFactor":0.19949317},"name":"srt10_orange_ref"},{"pbrMetallicRoughness":{"baseColorFactor":[0.5,0.5,0.5,1.0],"metallicFactor":0.0,"roughnessFactor":0.19949317},"name":"srt10_wire_115115115"},{"pbrMetallicRoughness":{"baseColorFactor":[0.0,0.0,0.0,1.0],"metallicFactor":0.0,"roughnessFactor":0.19949317},"name":"srt10_hidden_parts"},{"pbrMetallicRoughness":{"baseColorTexture":{"index":1},"metallicFactor":0.0,"roughnessFactor":0.19949317},"occlusionTexture":{"index":1},"name":"srt10_Material__31"},{"pbrMetallicRoughness":{"metallicFactor":0.0,"roughnessFactor":0.3457787},"name":"srt10_mirror"},{"pbrMetallicRoughness":{"baseColorTexture":{"index":2},"metallicFactor":0.0,"roughnessFactor":0.276016355},"occlusionTexture":{"index":2},"name":"srt10_tire"},{"pbrMetallicRoughness":{"baseColorTexture":{"index":3},"metallicFactor":0.0,"roughnessFactor":0.309252828},"name":"headlight_glass"}],"textures":[{"sampler":0,"source":0,"name":"RaceCar_Skin_Red-white.jpg"},{"sampler":0,"source":1,"name":"viper.jpg"},{"sampler":0,"source":2,"name":"tire_d.jpg"},{"sampler":0,"source":3,"name":"Headlight_glass.png"}],"images":[{"uri":"./RaceCar_Skin_Red-white.jpg"},{"uri":"./viper.jpg"},{"uri":"./tire_d.jpg"},{"uri":"./Headlight_glass.png"}],"samplers":[{"magFilter":9729,"minFilter":9987}]}